<svg width="33" height="32" viewBox="0 0 33 32" fill="none" xmlns="http://www.w3.org/2000/svg">
<path d="M21.7001 16.2V15.5H21.0001H16.5001C13.6135 15.5 11.3001 17.8134 11.3001 20.7C11.3001 23.5865 13.6135 25.9 16.5001 25.9C19.3867 25.9 21.7001 23.5865 21.7001 20.7V16.2ZM25.9001 11.3L25.2001 11.3V11.3003V11.3006V11.3012V11.3019V11.3027V11.3037V11.3049V11.3062V11.3077V11.3093V11.311V11.3129V11.315V11.3172V11.3195V11.322V11.3247V11.3275V11.3304V11.3335V11.3367V11.3401V11.3436V11.3473V11.3511V11.3551V11.3592V11.3634V11.3678V11.3723V11.377V11.3818V11.3867V11.3918V11.397V11.4023V11.4078V11.4135V11.4192V11.4251V11.4312V11.4373V11.4436V11.4501V11.4566V11.4633V11.4702V11.4772V11.4843V11.4915V11.4989V11.5063V11.514V11.5217V11.5296V11.5376V11.5457V11.554V11.5624V11.5709V11.5796V11.5883V11.5972V11.6062V11.6154V11.6246V11.634V11.6435V11.6532V11.6629V11.6728V11.6828V11.6929V11.7031V11.7135V11.7239V11.7345V11.7452V11.756V11.767V11.778V11.7892V11.8005V11.8119V11.8234V11.835V11.8467V11.8586V11.8705V11.8826V11.8948V11.9071V11.9195V11.932V11.9446V11.9574V11.9702V11.9831V11.9962V12.0094V12.0226V12.036V12.0495V12.063V12.0767V12.0905V12.1044V12.1184V12.1325V12.1467V12.161V12.1754V12.1899V12.2045V12.2192V12.234V12.2489V12.2638V12.2789V12.2941V12.3094V12.3248V12.3402V12.3558V12.3715V12.3872V12.4031V12.419V12.435V12.4512V12.4674V12.4837V12.5001V12.5166V12.5331V12.5498V12.5666V12.5834V12.6003V12.6173V12.6344V12.6516V12.6689V12.6863V12.7037V12.7212V12.7388V12.7565V12.7743V12.7921V12.8101V12.8281V12.8462V12.8644V12.8826V12.901V12.9194V12.9379V12.9564V12.9751V12.9938V13.0126V13.0315V13.0504V13.0695V13.0886V13.1077V13.127V13.1463V13.1657V13.1851V13.2047V13.2243V13.2439V13.2637V13.2835V13.3034V13.3233V13.3433V13.3634V13.3836V13.4038V13.4241V13.4444V13.4648V13.4853V13.5058V13.5264V13.5471V13.5678V13.5886V13.6095V13.6304V13.6514V13.6724V13.6935V13.7146V13.7358V13.7571V13.7784V13.7998V13.8212V13.8427V13.8643V13.8859V13.9075V13.9292V13.951V13.9728V13.9947V14.0166V14.0386V14.0606V14.0827V14.1048V14.127V14.1492V14.1714V14.1938V14.2161V14.2385V14.261V14.2835V14.306V14.3286V14.3513V14.374V14.3967V14.4195V14.4423V14.4651V14.488V14.511V14.5339V14.5569V14.58V14.6031V14.6262V14.6494V14.6726V14.6959V14.7191V14.7425V14.7658V14.7892V14.8126V14.8361V14.8596V14.8831V14.9067V14.9303V14.9539V14.9776V15.0012V15.025V15.0487V15.0725V15.0963V15.1201V15.144V15.1679V15.1918V15.2157V15.2397V15.2637V15.2877V15.3117V15.3358V15.3599V15.384V15.4081V15.4323V15.4564V15.4806V15.5049V15.5291V15.5533V15.5776V15.6019V15.6262V15.6506V15.6749V15.6993V15.7236V15.748V15.7725V15.7969V15.8213V15.8458V15.8702V15.8947V15.9192V15.9437V15.9682V15.9927V16.0173V16.0418V16.0664V16.0909V16.1155V16.1401V16.1646V16.1892V16.2138V16.2384V16.263V16.2876V16.3123V16.3369V16.3615V16.3861V16.4107V16.4354V16.46V16.4846V16.5093V16.5339V16.5585V16.5832V16.6078V16.6324V16.657V16.6816V16.7063V16.7309V16.7555V16.7801V16.8047V16.8293V16.8538V16.8784V16.903V16.9275V16.9521V16.9766V17.0012V17.0257V17.0502V17.0747V17.0992V17.1237V17.1481V17.1726V17.197V17.2215V17.2459V17.2703V17.2946V17.319V17.3433V17.3677V17.392V17.4163V17.4406V17.4648V17.4891V17.5133V17.5375V17.5616V17.5858V17.6099V17.634V17.6581V17.6822V17.7062V17.7303V17.7542V17.7782V17.8021V17.8261V17.8499V17.8738V17.8976V17.9214V17.9452V17.969V17.9927V18.0164V18.04V18.0636V18.0872V18.1108V18.1343V18.1578V18.1813V18.2047V18.2281V18.2515V18.2748V18.2981V18.3213V18.3445V18.3677V18.3908V18.4139V18.437V18.46V18.483V18.5059V18.5288V18.5517V18.5745V18.5972V18.62V18.6427V18.6653V18.6879V18.7104V18.7329V18.7554V18.7778V18.8002V18.8225V18.8448V18.867V18.8892V18.9113V18.9334V18.9554V18.9774V18.9993V19.0211V19.043V19.0647V19.0864V19.1081V19.1297V19.1512V19.1727V19.1942V19.2155V19.2369V19.2581V19.2793V19.3005V19.3216V19.3426V19.3636V19.3845V19.4053V19.4261V19.4469V19.4675V19.4881V19.5087V19.5291V19.5496V19.5699V19.5902V19.6104V19.6306V19.6506V19.6707V19.6906V19.7105V19.7303V19.75V19.7697V19.7893V19.8089V19.8283V19.8477V19.867V19.8863V19.9054V19.9245V19.9436V19.9625V19.9814V20.0002V20.0189V20.0376V20.0561V20.0746V20.093V20.1114V20.1296V20.1478V20.1659V20.1839V20.2019V20.2197V20.2375V20.2552V20.2728V20.2903V20.3078V20.3251V20.3424V20.3596V20.3767V20.3937V20.4106V20.4275V20.4442V20.4609V20.4775V20.494V20.5104V20.5267V20.5429V20.559V20.575V20.591V20.6068V20.6226V20.6383V20.6538V20.6693V20.6847V20.7C25.2001 25.5134 21.3135 29.4 16.5001 29.4C11.6867 29.4 7.8001 25.5134 7.8001 20.7C7.8001 15.8866 11.6867 12 16.5001 12H16.5065H16.513H16.5195H16.526H16.5325H16.539H16.5455H16.5521H16.5587H16.5652H16.5718H16.5784H16.585H16.5917H16.5983H16.605H16.6116H16.6183H16.625H16.6317H16.6384H16.6452H16.6519H16.6587H16.6655H16.6722H16.679H16.6859H16.6927H16.6995H16.7064H16.7132H16.7201H16.727H16.7339H16.7408H16.7477H16.7547H16.7616H16.7686H16.7756H16.7826H16.7896H16.7966H16.8036H16.8107H16.8177H16.8248H16.8319H16.839H16.8461H16.8532H16.8603H16.8675H16.8746H16.8818H16.889H16.8962H16.9034H16.9106H16.9178H16.925H16.9323H16.9396H16.9468H16.9541H16.9614H16.9687H16.976H16.9834H16.9907H16.9981H17.0055H17.0128H17.0202H17.0276H17.0351H17.0425H17.0499H17.0574H17.0648H17.0723H17.0798H17.0873H17.0948H17.1023H17.1099H17.1174H17.125H17.1325H17.1401H17.1477H17.1553H17.1629H17.1705H17.1782H17.1858H17.1935H17.2011H17.2088H17.2165H17.2242H17.2319H17.2396H17.2474H17.2551H17.2629H17.2706H17.2784H17.2862H17.294H17.3018H17.3096H17.3175H17.3253H17.3332H17.341H17.3489H17.3568H17.3647H17.3726H17.3805H17.3884H17.3964H17.4043H17.4123H17.4202H17.4282H17.4362H17.4442H17.4522H17.4602H17.4683H17.4763H17.4844H17.4924H17.5005H17.5086H17.5167H17.5248H17.5329H17.541H17.5491H17.5573H17.5654H17.5736H17.5817H17.5899H17.5981H17.6063H17.6145H17.6227H17.631H17.6392H17.6474H17.6557H17.664H17.6722H17.6805H17.6888H17.6971H17.7054H17.7138H17.7221H17.7304H17.7388H17.7471H17.7555H17.7639H17.7723H17.7807H17.7891H17.7975H17.8059H17.8144H17.8228H17.8312H17.8397H17.8482H17.8567H17.8651H17.8736H17.8821H17.8907H17.8992H17.9077H17.9163H17.9248H17.9334H17.9419H17.9505H17.9591H17.9677H17.9763H17.9849H17.9935H18.0021H18.0108H18.0194H18.0281H18.0367H18.0454H18.0541H18.0627H18.0714H18.0801H18.0888H18.0976H18.1063H18.115H18.1238H18.1325H18.1413H18.15H18.1588H18.1676H18.1764H18.1852H18.194H18.2028H18.2116H18.2205H18.2293H18.2381H18.247H18.2558H18.2647H18.2736H18.2825H18.2914H18.3003H18.3092H18.3181H18.327H18.3359H18.3449H18.3538H18.3628H18.3717H18.3807H18.3897H18.3986H18.4076H18.4166H18.4256H18.4346H18.4436H18.4527H18.4617H18.4707H18.4798H18.4888H18.4979H18.5069H18.516H18.5251H18.5342H18.5433H18.5524H18.5615H18.5706H18.5797H18.5888H18.598H18.6071H18.6163H18.6254H18.6346H18.6437H18.6529H18.6621H18.6713H18.6805H18.6897H18.6989H18.7081H18.7173H18.7265H18.7357H18.745H18.7542H18.7635H18.7727H18.782H18.7913H18.8005H18.8098H18.8191H18.8284H18.8377H18.847H18.8563H18.8656H18.8749H18.8843H18.8936H18.9029H18.9123H18.9216H18.931H18.9403H18.9497H18.9591H18.9685H18.9778H18.9872H18.9966H19.006H19.0154H19.0248H19.0343H19.0437H19.0531H19.0625H19.072H19.0814H19.0909H19.1003H19.1098H19.1192H19.1287H19.1382H19.1477H19.1571H19.1666H19.1761H19.1856H19.1951H19.2046H19.2142H19.2237H19.2332H19.2427H19.2523H19.2618H19.2713H19.2809H19.2904H19.3H19.3096H19.3191H19.3287H19.3383H19.3479H19.3574H19.367H19.3766H19.3862H19.3958H19.4054H19.415H19.4247H19.4343H19.4439H19.4535H19.4632H19.4728H19.4824H19.4921H19.5017H19.5114H19.521H19.5307H19.5404H19.55H19.5597H19.5694H19.5791H19.5888H19.5984H19.6081H19.6178H19.6275H19.6372H19.6469H19.6567H19.6664H19.6761H19.6858H19.6955H19.7053H19.715H19.7247H19.7345H19.7442H19.754H19.7637H19.7735H19.7832H19.793H19.8027H19.8125H19.8223H19.8321H19.8418H19.8516H19.8614H19.8712H19.881H19.8908H19.9005H19.9103H19.9201H19.9299H19.9398H19.9496H19.9594H19.9692H19.979H19.9888H19.9986H20.0085H20.0183H20.0281H20.038H20.0478H20.0576H20.0675H20.0773H20.0872H20.097H20.1069H20.1167H20.1266H20.1364H20.1463H20.1562H20.166H20.1759H20.1858H20.1956H20.2055H20.2154H20.2253H20.2351H20.245H20.2549H20.2648H20.2747H20.2846H20.2945H20.3044H20.3143H20.3242H20.3341H20.344H20.3539H20.3638H20.3737H20.3836H20.3935H20.4034H20.4133H20.4232H20.4332H20.4431H20.453H20.4629H20.4728H20.4828H20.4927H20.5026H20.5125H20.5225H20.5324H20.5423H20.5523H20.5622H20.5721H20.5821H20.592H20.6019H20.6119H20.6218H20.6318H20.6417H20.6517H20.6616H20.6715H20.6815H20.6914H20.7014H20.7113H20.7213H20.7312H20.7412H20.7511H20.7611H20.7711H20.781H20.791H20.8009H20.8109H20.8208H20.8308H20.8407H20.8507H20.8607H20.8706H20.8806H20.8905H20.9005H20.9105H20.9204H20.9304H20.9403H20.9503H20.9603H20.9702H20.9802H20.9901H21.0001H21.7001V11.3V2.89995H25.2924L25.2001 11.2923H25.2001V11.3H25.9001Z" stroke="url(#paint0_linear_125_1535)" stroke-width="1.4"/>
<defs>
<linearGradient id="paint0_linear_125_1535" x1="6.39815" y1="2.19995" x2="27.0128" y2="2.96944" gradientUnits="userSpaceOnUse">
<stop stop-color="#F5EA99"/>
<stop offset="1" stop-color="#DB9B45"/>
</linearGradient>
</defs>
</svg>
